<svg width="60" height="78" viewBox="0 0 60 78" fill="none" xmlns="http://www.w3.org/2000/svg">
<path fill-rule="evenodd" clip-rule="evenodd" d="M57.9865 45.7525C58.2959 44.668 58.5974 43.6034 58.7497 42.4835C59.202 39.1983 59.2122 35.8425 59.4185 32.5366C59.6171 29.3524 60.0227 26.2273 59.7873 23.0292C59.6633 21.3465 59.4408 19.5693 58.7628 18.0129C58.0136 16.2974 56.6068 15.2145 55.3397 13.9197C53.7624 12.3097 52.7736 10.2104 51.2047 8.59749C49.6764 7.02622 47.6327 6.1221 45.9509 4.74494C43.3164 2.58547 41.1227 0.148213 37.5187 0.296808C34.7998 0.411488 32.1709 1.3302 29.4605 1.54564C26.8233 1.75723 24.236 1.20932 21.6415 0.827409C18.8677 0.41885 16.5307 0.450729 14.342 2.38424C12.2185 4.25902 10.3296 6.1487 8.00959 7.79701C6.35714 8.96788 4.67184 10.1333 3.34157 11.6932C2.05088 13.2046 1.04664 15.0671 0.753718 17.0699C0.474633 18.9852 0.980197 20.8788 1.03165 22.7896C1.09363 25.0578 0.471541 27.2791 0.447252 29.5469C0.431428 30.9744 0.694968 32.367 1.06931 33.7394C1.92401 36.8799 2.73631 39.8512 3.24333 43.0835C4.86444 53.427 7.04562 60.1983 13.7414 68.1101C18.1894 73.3656 24.1862 77.9566 30.9876 77.9733C37.6266 77.9866 43.6726 73.5306 47.4449 67.9266C51.2154 62.3243 56.1223 52.2791 57.9865 45.7525Z" fill="black"/>
</svg>
