<svg width="60" height="60" viewBox="0 0 60 60" fill="none" xmlns="http://www.w3.org/2000/svg">
<rect x="0.5" y="0.5" width="59" height="59" rx="11.5" fill="white" stroke="#E8E7E7"/>
<g clip-path="url(#clip0_1_661)">
<path d="M30 42.5C23.0963 42.5 17.5 36.9037 17.5 30C17.5 23.0963 23.0963 17.5 30 17.5C36.9037 17.5 42.5 23.0963 42.5 30C42.5 36.9037 36.9037 42.5 30 42.5ZM30 40C32.6522 40 35.1957 38.9464 37.0711 37.0711C38.9464 35.1957 40 32.6522 40 30C40 27.3478 38.9464 24.8043 37.0711 22.9289C35.1957 21.0536 32.6522 20 30 20C27.3478 20 24.8043 21.0536 22.9289 22.9289C21.0536 24.8043 20 27.3478 20 30C20 32.6522 21.0536 35.1957 22.9289 37.0711C24.8043 38.9464 27.3478 40 30 40ZM28.75 33.75H31.25V36.25H28.75V33.75ZM31.25 31.6937V32.5H28.75V30.625C28.75 30.2935 28.8817 29.9755 29.1161 29.7411C29.3505 29.5067 29.6685 29.375 30 29.375C30.3551 29.375 30.7029 29.2741 31.0029 29.0842C31.3029 28.8942 31.5428 28.623 31.6947 28.302C31.8466 27.981 31.9042 27.6235 31.8609 27.2711C31.8175 26.9186 31.6749 26.5857 31.4498 26.3111C31.2246 26.0365 30.9261 25.8315 30.589 25.72C30.2519 25.6084 29.89 25.5948 29.5455 25.6809C29.201 25.7669 28.888 25.949 28.643 26.206C28.3979 26.463 28.2308 26.7843 28.1613 27.1325L25.7088 26.6412C25.8608 25.8814 26.2119 25.1755 26.7262 24.5957C27.2404 24.016 27.8994 23.5832 28.6357 23.3417C29.3721 23.1001 30.1594 23.0584 30.9171 23.2208C31.6748 23.3832 32.3759 23.7439 32.9485 24.266C33.5212 24.7882 33.9449 25.453 34.1764 26.1926C34.4079 26.9322 34.4388 27.7199 34.2661 28.4754C34.0933 29.2308 33.7231 29.9269 33.1932 30.4923C32.6632 31.0578 31.9927 31.4724 31.25 31.6937Z" fill="#707070"/>
</g>
<defs>
<clipPath id="clip0_1_661">
<rect width="30" height="30" fill="white" transform="translate(15 15)"/>
</clipPath>
</defs>
</svg>
