<svg width="201" height="1124" viewBox="0 0 201 1124" fill="none" xmlns="http://www.w3.org/2000/svg">
<g filter="url(#filter0_d_1_680)">
<rect x="50" y="49" width="101" height="1024" rx="12" fill="white"/>
<rect x="50.5" y="49.5" width="100" height="1023" rx="11.5" stroke="#E8E7E7"/>
</g>
<rect x="71" y="218" width="60" height="60" rx="12" fill="#303030"/>
<g clip-path="url(#clip0_1_680)">
<path d="M89.75 249.25H99.75V236.75H89.75V249.25ZM89.75 259.25H99.75V251.75H89.75V259.25ZM102.25 259.25H112.25V246.75H102.25V259.25ZM102.25 236.75V244.25H112.25V236.75H102.25Z" fill="white"/>
</g>
<rect x="71" y="308" width="60" height="60" rx="12" fill="white"/>
<g clip-path="url(#clip1_1_680)">
<path d="M107.25 326.75H112.25C112.582 326.75 112.899 326.882 113.134 327.116C113.368 327.351 113.5 327.668 113.5 328V348C113.5 348.332 113.368 348.649 113.134 348.884C112.899 349.118 112.582 349.25 112.25 349.25H89.75C89.4185 349.25 89.1005 349.118 88.8661 348.884C88.6317 348.649 88.5 348.332 88.5 348V328C88.5 327.668 88.6317 327.351 88.8661 327.116C89.1005 326.882 89.4185 326.75 89.75 326.75H94.75V324.25H97.25V326.75H104.75V324.25H107.25V326.75ZM91 334.25V346.75H111V334.25H91ZM93.5 339.25H99.75V344.25H93.5V339.25Z" fill="#707070"/>
</g>
<rect x="71" y="488" width="60" height="60" rx="12" fill="white"/>
<g clip-path="url(#clip2_1_680)">
<path d="M101 530.5C94.0963 530.5 88.5 524.904 88.5 518C88.5 512.402 92.1787 507.665 97.25 506.072V508.727C95.1012 509.6 93.3222 511.192 92.2176 513.231C91.1129 515.271 90.7511 517.63 91.1941 519.907C91.637 522.183 92.8572 524.235 94.646 525.712C96.4347 527.188 98.6808 527.997 101 528C102.992 528 104.939 527.405 106.591 526.292C108.243 525.178 109.525 523.597 110.272 521.75H112.927C111.335 526.821 106.597 530.5 101 530.5ZM113.438 519.25H99.75V505.562C100.161 505.521 100.579 505.5 101 505.5C107.904 505.5 113.5 511.096 113.5 518C113.5 518.421 113.479 518.839 113.438 519.25ZM102.25 508.077V516.75H110.923C110.644 514.547 109.641 512.499 108.071 510.929C106.501 509.359 104.453 508.356 102.25 508.077Z" fill="#707070"/>
</g>
<rect x="71" y="398" width="60" height="60" rx="12" fill="white"/>
<g clip-path="url(#clip3_1_680)">
<path d="M88.5 424.243C88.4993 423.258 88.6929 422.283 89.0697 421.373C89.4465 420.463 89.999 419.636 90.6957 418.94C91.3924 418.244 92.2195 417.693 93.1297 417.317C94.0399 416.941 95.0153 416.748 96 416.75H106C110.141 416.75 113.5 420.119 113.5 424.243V439.25H96C91.8588 439.25 88.5 435.881 88.5 431.758V424.243ZM111 436.75V424.243C110.997 422.918 110.469 421.649 109.531 420.713C108.594 419.778 107.324 419.251 106 419.25H96C95.3436 419.248 94.6933 419.376 94.0864 419.627C93.4795 419.877 92.928 420.244 92.4635 420.708C91.9989 421.172 91.6305 421.723 91.3794 422.329C91.1283 422.936 90.9993 423.586 91 424.243V431.758C91.0033 433.082 91.5314 434.351 92.4686 435.287C93.4058 436.223 94.6756 436.749 96 436.75H111ZM103.5 426.75H106V429.25H103.5V426.75ZM96 426.75H98.5V429.25H96V426.75Z" fill="#707070"/>
</g>
<rect x="71" y="578" width="60" height="60" rx="12" fill="white"/>
<g clip-path="url(#clip4_1_680)">
<path d="M90.4524 615.666C89.8888 614.692 89.4507 613.65 89.1484 612.565C89.8062 612.231 90.3586 611.721 90.7445 611.092C91.1304 610.463 91.3348 609.739 91.3351 609.001C91.3353 608.263 91.1315 607.54 90.746 606.91C90.3606 606.281 89.8086 605.771 89.1511 605.436C89.7538 603.256 90.9014 601.266 92.4858 599.653C93.1046 600.055 93.8226 600.279 94.5604 600.298C95.2982 600.318 96.027 600.133 96.6662 599.764C97.3054 599.394 97.83 598.856 98.1819 598.207C98.5339 597.558 98.6995 596.825 98.6604 596.088C100.85 595.522 103.147 595.523 105.336 596.09C105.298 596.827 105.464 597.561 105.816 598.209C106.168 598.858 106.693 599.396 107.332 599.765C107.972 600.134 108.7 600.319 109.438 600.299C110.176 600.279 110.894 600.056 111.512 599.653C112.284 600.44 112.97 601.334 113.546 602.333C114.123 603.332 114.555 604.373 114.85 605.434C114.192 605.769 113.64 606.279 113.254 606.908C112.868 607.537 112.663 608.26 112.663 608.998C112.663 609.736 112.867 610.46 113.252 611.089C113.638 611.718 114.19 612.229 114.847 612.564C114.244 614.743 113.097 616.733 111.512 618.346C110.894 617.944 110.176 617.721 109.438 617.701C108.7 617.682 107.971 617.867 107.332 618.236C106.693 618.605 106.168 619.144 105.816 619.793C105.464 620.441 105.299 621.175 105.338 621.912C103.148 622.478 100.851 622.477 98.6618 621.909C98.7005 621.172 98.5346 620.439 98.1823 619.79C97.8301 619.142 97.3053 618.603 96.666 618.234C96.0267 617.866 95.2978 617.681 94.5601 617.701C93.8223 617.72 93.1044 617.944 92.4858 618.346C91.6978 617.542 91.0146 616.642 90.4524 615.666ZM97.9991 615.928C99.4199 616.747 100.488 618.062 100.999 619.621C101.664 619.684 102.332 619.685 102.998 619.622C103.509 618.064 104.578 616.748 105.999 615.929C107.419 615.107 109.093 614.839 110.699 615.176C111.086 614.632 111.419 614.052 111.696 613.445C110.602 612.223 109.998 610.64 109.999 609C109.999 607.32 110.626 605.75 111.696 604.554C111.417 603.948 111.082 603.369 110.696 602.824C109.091 603.16 107.419 602.892 105.999 602.072C104.578 601.252 103.51 599.937 102.999 598.378C102.334 598.316 101.666 598.314 101 598.377C100.489 599.936 99.4204 601.251 97.9991 602.07C96.5788 602.892 94.9051 603.16 93.2991 602.824C92.9132 603.368 92.5793 603.948 92.3018 604.554C93.3959 605.777 94.0003 607.359 93.9991 609C93.9991 610.68 93.3724 612.249 92.3018 613.445C92.5811 614.052 92.9158 614.631 93.3018 615.176C94.9067 614.839 96.5794 615.107 97.9991 615.928ZM101.999 613C100.938 613 99.9208 612.578 99.1707 611.828C98.4205 611.078 97.9991 610.061 97.9991 609C97.9991 607.939 98.4205 606.921 99.1707 606.171C99.9208 605.421 100.938 605 101.999 605C103.06 605 104.077 605.421 104.828 606.171C105.578 606.921 105.999 607.939 105.999 609C105.999 610.061 105.578 611.078 104.828 611.828C104.077 612.578 103.06 613 101.999 613ZM101.999 610.333C102.353 610.333 102.692 610.193 102.942 609.943C103.192 609.693 103.332 609.353 103.332 609C103.332 608.646 103.192 608.307 102.942 608.057C102.692 607.807 102.353 607.666 101.999 607.666C101.645 607.666 101.306 607.807 101.056 608.057C100.806 608.307 100.666 608.646 100.666 609C100.666 609.353 100.806 609.693 101.056 609.943C101.306 610.193 101.645 610.333 101.999 610.333Z" fill="#707070"/>
</g>
<rect x="71" y="668" width="60" height="60" rx="12" fill="white"/>
<g clip-path="url(#clip5_1_680)">
<path d="M91 705.5H93.5V708H108.5V688H93.5V690.5H91V686.75C91 686.418 91.1317 686.101 91.3661 685.866C91.6005 685.632 91.9185 685.5 92.25 685.5H109.75C110.082 685.5 110.399 685.632 110.634 685.866C110.868 686.101 111 686.418 111 686.75V709.25C111 709.582 110.868 709.899 110.634 710.134C110.399 710.368 110.082 710.5 109.75 710.5H92.25C91.9185 710.5 91.6005 710.368 91.3661 710.134C91.1317 709.899 91 709.582 91 709.25V705.5ZM93.5 696.75H102.25V699.25H93.5V703L87.25 698L93.5 693V696.75Z" fill="#707070"/>
</g>
<path d="M103.067 112.963L104.612 111.419C107.645 108.385 112.584 108.31 115.635 111.326C116.791 112.471 117.559 113.95 117.831 115.554C118.104 117.159 117.867 118.808 117.154 120.271C116.812 120.97 116.697 121.758 116.824 122.525C116.952 123.293 117.316 124.001 117.866 124.552C118.877 123.538 119.678 122.336 120.224 121.013C120.77 119.69 121.05 118.272 121.048 116.84C121.046 115.409 120.762 113.992 120.212 112.671C119.663 111.349 118.858 110.149 117.844 109.138C113.578 104.896 106.653 104.981 102.399 109.235L87.6751 123.958L86.4647 122.748C83.3798 119.663 83.3601 114.62 86.4994 111.59C87.6614 110.472 89.1419 109.742 90.7364 109.501C92.331 109.26 93.961 109.52 95.4015 110.245C96.059 110.582 96.8061 110.702 97.5362 110.589C98.2663 110.476 98.942 110.135 99.4668 109.615L99.5043 109.578C99.516 109.566 99.5253 109.553 99.5316 109.537C99.5379 109.522 99.5412 109.506 99.5412 109.489C99.5412 109.473 99.5379 109.457 99.5316 109.441C99.5253 109.426 99.516 109.412 99.5043 109.401C97.4778 107.425 94.7622 106.315 91.932 106.307C89.1018 106.298 86.3792 107.39 84.3401 109.353C79.9479 113.593 79.9636 120.644 84.2806 124.961L99 139.68L97.4364 141.244C94.403 144.277 89.4643 144.352 86.4136 141.336C85.2576 140.191 84.4894 138.712 84.2168 137.108C83.9443 135.504 84.1811 133.854 84.8941 132.391C85.2362 131.693 85.3515 130.904 85.2239 130.137C85.0963 129.37 84.7322 128.661 84.1824 128.111C83.1715 129.124 82.3701 130.327 81.824 131.65C81.278 132.973 80.998 134.39 81 135.822C81.002 137.253 81.2861 138.67 81.8359 139.992C82.3857 141.313 83.1905 142.514 84.2043 143.524C88.4702 147.766 95.3951 147.682 99.6493 143.428L114.392 128.685L115.607 129.9C118.641 132.933 118.716 137.872 115.7 140.923C114.555 142.079 113.076 142.847 111.471 143.12C109.867 143.392 108.218 143.155 106.755 142.442C106.056 142.1 105.267 141.984 104.5 142.112C103.732 142.24 103.023 142.605 102.473 143.155C103.486 144.166 104.689 144.967 106.012 145.513C107.335 146.059 108.753 146.339 110.184 146.337C111.615 146.335 113.032 146.051 114.354 145.501C115.676 144.952 116.876 144.147 117.886 143.133C122.129 138.867 122.044 131.942 117.79 127.688L103.067 112.963ZM101.198 137.481L89.8737 126.157L100.868 115.162L112.193 126.487L101.198 137.481Z" fill="#D08726"/>
<defs>
<filter id="filter0_d_1_680" x="0" y="0" width="201" height="1124" filterUnits="userSpaceOnUse" color-interpolation-filters="sRGB">
<feFlood flood-opacity="0" result="BackgroundImageFix"/>
<feColorMatrix in="SourceAlpha" type="matrix" values="0 0 0 0 0 0 0 0 0 0 0 0 0 0 0 0 0 0 127 0" result="hardAlpha"/>
<feOffset dy="1"/>
<feGaussianBlur stdDeviation="25"/>
<feComposite in2="hardAlpha" operator="out"/>
<feColorMatrix type="matrix" values="0 0 0 0 0 0 0 0 0 0 0 0 0 0 0 0 0 0 0.08 0"/>
<feBlend mode="normal" in2="BackgroundImageFix" result="effect1_dropShadow_1_680"/>
<feBlend mode="normal" in="SourceGraphic" in2="effect1_dropShadow_1_680" result="shape"/>
</filter>
<clipPath id="clip0_1_680">
<rect width="30" height="30" fill="white" transform="translate(86 233)"/>
</clipPath>
<clipPath id="clip1_1_680">
<rect width="30" height="30" fill="white" transform="translate(86 323)"/>
</clipPath>
<clipPath id="clip2_1_680">
<rect width="30" height="30" fill="white" transform="translate(86 503)"/>
</clipPath>
<clipPath id="clip3_1_680">
<rect width="30" height="30" fill="white" transform="translate(86 413)"/>
</clipPath>
<clipPath id="clip4_1_680">
<rect width="32" height="32" fill="white" transform="translate(86 593)"/>
</clipPath>
<clipPath id="clip5_1_680">
<rect width="30" height="30" fill="white" transform="translate(86 683)"/>
</clipPath>
</defs>
</svg>
